<?xml version="1.0" encoding="utf-8"?>
<!-- Generator: Adobe Illustrator 27.5.0, SVG Export Plug-In . SVG Version: 6.00 Build 0)  -->
<svg version="1.1" id="Layer" xmlns="http://www.w3.org/2000/svg" xmlns:xlink="http://www.w3.org/1999/xlink" x="0px" y="0px"
	 viewBox="0 0 600 400" style="enable-background:new 0 0 600 400;" xml:space="preserve">
<rect style="fill:#FFFFFF;" width="600" height="400"/>
<defs>
	<filter id="Adobe_OpacityMaskFilter" filterUnits="userSpaceOnUse" x="7.262" y="147.667" width="585.476" height="252.333">
		<feColorMatrix  type="matrix" values="1 0 0 0 0  0 1 0 0 0  0 0 1 0 0  0 0 0 1 0"/>
	</filter>
</defs>
<mask maskUnits="userSpaceOnUse" x="7.262" y="147.667" width="585.476" height="252.333" id="SVGID_1_">
	<g style="filter:url(#Adobe_OpacityMaskFilter);">
		
			<linearGradient id="SVGID_00000163046395786900944880000003570075444843450519_" gradientUnits="userSpaceOnUse" x1="299.9999" y1="398.8725" x2="299.9999" y2="151.6567">
			<stop  offset="0" style="stop-color:#FFFFFF"/>
			<stop  offset="0.3696" style="stop-color:#FDFDFD"/>
			<stop  offset="0.5028" style="stop-color:#F6F6F6"/>
			<stop  offset="0.5977" style="stop-color:#EBEBEB"/>
			<stop  offset="0.6745" style="stop-color:#DADADA"/>
			<stop  offset="0.7402" style="stop-color:#C4C4C4"/>
			<stop  offset="0.7984" style="stop-color:#A8A8A8"/>
			<stop  offset="0.8511" style="stop-color:#888888"/>
			<stop  offset="0.8995" style="stop-color:#626262"/>
			<stop  offset="0.9446" style="stop-color:#373737"/>
			<stop  offset="0.9845" style="stop-color:#090909"/>
			<stop  offset="0.9919" style="stop-color:#000000"/>
		</linearGradient>
		
			<rect x="0" y="149.667" style="fill:url(#SVGID_00000163046395786900944880000003570075444843450519_);" width="600" height="251.451"/>
	</g>
</mask>
<g style="mask:url(#SVGID_1_);">
	
		<linearGradient id="SVGID_00000124873717879888378010000005217358186276477085_" gradientUnits="userSpaceOnUse" x1="564.4913" y1="248.0163" x2="450.4893" y2="248.0163" gradientTransform="matrix(0.9851 0.0961 0 1 4.6743 -38.8179)">
		<stop  offset="0" style="stop-color:#C8CACC"/>
		<stop  offset="1" style="stop-color:#777D7F"/>
	</linearGradient>
	<path style="fill:url(#SVGID_00000124873717879888378010000005217358186276477085_);" d="M441.209,197.811
		c-12.017-0.835-17.525-4.021-18.723-8.141c-4.501-0.287-9.036-1.023-13.7-2.636c-5.708-1.975-11.204-4.651-16.701-7.332
		c-20.032,12.86-7.859,27.922,38.579,30.952c74.238,4.843,122.798,18.069,89.019,33.697
		c-40.336,18.661-88.091,21.085-130.734,24.276c0.646,1.492,1.301,2.98,2.001,4.446c0.028,0.059,1.539,3.006,1.38,2.763
		c7.693,14.122,14.98,22.059,27.099,31.782c5.94,4.765,9.338,7.445,15.114,10.806c0.722-6.179,4.399-11.133,11.753-14.428
		C514.032,273.647,732.386,225.286,441.209,197.811z"/>
	
		<linearGradient id="SVGID_00000134943571860238729710000008111695446015638715_" gradientUnits="userSpaceOnUse" x1="518.8108" y1="252.4062" x2="404.8088" y2="252.4062" gradientTransform="matrix(-0.9851 0.0961 0 1 550.7748 -38.8179)">
		<stop  offset="0" style="stop-color:#C8CACC"/>
		<stop  offset="1" style="stop-color:#777D7F"/>
	</linearGradient>
	<path style="fill:url(#SVGID_00000134943571860238729710000008111695446015638715_);" d="M159.24,197.811
		c12.017-0.835,17.525-4.021,18.723-8.141c4.501-0.287,9.037-1.023,13.7-2.636c5.708-1.975,11.204-4.651,16.701-7.332
		c20.032,12.86,7.859,27.922-38.579,30.952c-74.237,4.843-122.798,18.069-89.018,33.697c40.336,18.661,88.091,21.085,130.734,24.276
		c-0.646,1.492-1.301,2.98-2.001,4.446c-0.028,0.059-1.538,3.006-1.381,2.763c-7.692,14.122-14.98,22.059-27.099,31.782
		c-5.94,4.765-9.338,7.445-15.114,10.806c-0.722-6.179-4.399-11.133-11.752-14.428C86.417,273.647-131.937,225.286,159.24,197.811z"
		/>
	<g>
		<g>
			<g>
				<g>
					<path style="fill:#272B2C;" d="M148.607,289.343c44.621,33.097-38.716,84.02-105.633,110.657h285.474
						c20.589-131.473-141.01-114.415-249.838-196.721c-34.576-26.149,15.13-24.93,91.117-7.396
						c66.335,15.306,55.49-15.47-9.075-47.202c0,0,0,1.475,0,2.275c17.904,14.785,29.44,35.705-1.719,28.649
						C49.303,157.485,21.247,161.097,8.318,168.998c-0.051,0.274-1.011,4.437-1.032,4.721
						C5.487,197.673,105.29,257.213,148.607,289.343z"/>
					<g>
						<path style="fill:#899293;" d="M160.734,188.16c20.831,4.807,57.875,1.248,57.875,1.248s-1.166,4.067-1.365,4.61
							c-2.373,6.482-17.158,9.936-45.011,3.509c-69.616-16.063-114.948-16.83-95.848,2.992c-1.529-1.104-5.26-3.822-6.77-4.963
							C35.041,169.406,84.746,170.626,160.734,188.16z"/>
					</g>
					
						<linearGradient id="SVGID_00000174583633868527140410000016958731707271056543_" gradientUnits="userSpaceOnUse" x1="169.1288" y1="-21.9999" x2="169.1288" y2="408.0551">
						<stop  offset="0" style="stop-color:#697173"/>
						<stop  offset="1" style="stop-color:#363B3C"/>
					</linearGradient>
					<path style="fill:url(#SVGID_00000174583633868527140410000016958731707271056543_);" d="M153.727,281.468
						C202.7,317.115,92.577,376.754,23.999,400h303.196c27.532-136.563-137.847-117.788-248.585-199.974
						c-34.576-25.661,15.13-24.464,91.117-7.258c66.335,15.02,64.388-13.21-0.177-44.35c-3.65,0-8.898-0.523-8.898,0.262
						c17.904,14.509,29.44,35.038-1.719,28.113C-139.108,117.786,84.394,231.001,153.727,281.468z"/>
					<path style="fill:#EFFDFE;" d="M73.53,198.289C179.457,282.241,338.005,262.641,311.501,400h5.956
						c26.696-136.856-131.566-119.874-239.432-199.974c-36.526-27.124,14.894-26.134,88.081-8.929
						c63.889,15.02,71.823-8.035,2.739-42.958c-0.126,0-0.258-0.002-0.387-0.003c73.557,38.444,55.6,55.96-6.847,41.17
						C88.424,171.972,41.498,172.903,73.53,198.289z"/>
					<path style="fill:#EFFDFE;" d="M155.393,281.085C203.739,316.477,97.873,376.61,30.41,400h14.067
						c70.384-26.019,161.182-85.699,115.417-119.202c-68.537-50.173-293.768-161.369,1.764-102.704
						c30.487,6.794,17.414-15.133-0.215-29.632c0,0-0.019,0.243-0.319,0.145c18.336,14.966,29.714,34.735-0.679,28.708
						C-137.607,118.216,86.856,230.912,155.393,281.085z"/>
				</g>
				<path style="fill:#EFFDFE;" d="M202.136,400c0.581-0.767,1.166-1.544,1.761-2.351c-2.064-0.876-4.1-1.841-6.101-2.936
					c-1.462,1.87-2.87,3.627-4.217,5.287H202.136z"/>
				<path style="fill:#EFFDFE;" d="M212.449,373.654c0.108-0.19,0.221-0.387,0.33-0.577c1.789,0.858,3.593,1.671,5.41,2.444
					c-0.061,0.108-0.117,0.223-0.179,0.329c-0.757,1.351-1.503,2.682-2.238,3.994c-0.761,1.288-1.549,2.524-2.303,3.758
					c-0.958,1.538-1.912,3.01-2.864,4.453c-2.028-0.737-4.028-1.555-5.979-2.509c1.835-2.595,3.696-5.335,5.559-8.271
					C210.926,376.086,211.703,374.893,212.449,373.654z"/>
				<path style="fill:#EFFDFE;" d="M228.22,319c0.098,0.333,0.213,0.66,0.303,0.995c0.828,3.172,1.319,6.39,1.539,9.585
					c-1.381-0.083-2.76-0.195-4.139-0.34c-0.199-2.639-0.607-5.287-1.264-7.906c-0.139-0.532-0.314-1.079-0.477-1.621
					C225.527,319.467,226.875,319.237,228.22,319z"/>
				<path style="fill:#EFFDFE;" d="M215.999,297.32c0.343,0.391,0.692,0.776,1.027,1.174c1.987,2.4,3.823,4.96,5.46,7.652
					c-1.311,0.229-2.623,0.462-3.93,0.718c-1.428-2.463-2.996-4.802-4.662-6.854c-0.104-0.126-0.216-0.248-0.321-0.373
					C214.39,298.877,215.199,298.104,215.999,297.32z"/>
				<path style="fill:#EFFDFE;" d="M200.907,283.533c2.303,1.745,4.564,3.545,6.73,5.449c-0.768,0.725-1.545,1.438-2.329,2.141
					c-2.31-2.09-4.726-4.086-7.188-5.982C199.057,284.629,199.986,284.092,200.907,283.533z"/>
				<path style="fill:#EFFDFE;" d="M186.647,273.94c2.676,1.614,5.307,3.282,7.882,5.02c-0.971,0.517-1.953,1.002-2.949,1.447
					c-2.466-1.685-4.994-3.311-7.57-4.889C184.889,274.992,185.769,274.468,186.647,273.94z"/>
				<path style="fill:#EFFDFE;" d="M169.488,264.473c2.968,1.576,5.93,3.149,8.861,4.704c0.404,0.221,0.801,0.451,1.203,0.674
					c-0.868,0.513-1.74,1.017-2.611,1.519c-0.226-0.128-0.448-0.259-0.675-0.387c-2.909-1.582-5.85-3.181-8.795-4.783
					C168.147,265.633,168.82,265.058,169.488,264.473z"/>
				<path style="fill:#EFFDFE;" d="M138.462,247.726c2.688,1.491,5.373,2.972,8.051,4.436c-0.674,0.487-1.363,0.953-2.056,1.41
					c-2.664-1.491-5.34-3.018-8.013-4.536C137.115,248.597,137.793,248.17,138.462,247.726z"/>
				<path style="fill:#EFFDFE;" d="M123.687,239.37c2.592,1.486,5.185,2.972,7.774,4.432c-0.652,0.422-1.301,0.851-1.956,1.268
					c-2.611-1.507-5.227-3.042-7.842-4.575C122.342,240.133,123.017,239.758,123.687,239.37z"/>
				<path style="fill:#EFFDFE;" d="M110.098,231.443c2.093,1.24,4.188,2.474,6.284,3.697c-0.707,0.337-1.421,0.654-2.138,0.958
					c-1.99-1.188-3.979-2.388-5.967-3.592C108.885,232.156,109.491,231.799,110.098,231.443z"/>
				<path style="fill:#EFFDFE;" d="M95.642,222.679c2.455,1.525,4.917,3.036,7.383,4.529c-0.601,0.33-1.206,0.653-1.811,0.974
					c-2.447-1.514-4.888-3.045-7.325-4.591C94.477,223.294,95.059,222.984,95.642,222.679z"/>
				<path style="fill:#EFFDFE;" d="M81.805,213.815c2.227,1.471,4.461,2.931,6.707,4.369c-0.576,0.281-1.153,0.558-1.731,0.835
					c-2.245-1.46-4.72-2.996-7.274-4.574C80.273,214.238,81.04,214.03,81.805,213.815z"/>
				<path style="fill:#EFFDFE;" d="M67.92,205.085c0.307-0.064,0.615-0.117,0.923-0.177c2.14,1.532,4.295,3.043,6.466,4.532
					c-0.904,0.238-1.808,0.474-2.713,0.71c-2.372-1.496-4.684-3-6.849-4.488C66.462,205.437,67.185,205.238,67.92,205.085z"/>
				<path style="fill:#EFFDFE;" d="M56.104,195.135c0.181,0.152,0.359,0.307,0.541,0.458c2.068,1.706,4.185,3.352,6.32,4.974
					c-0.9,0.351-1.8,0.718-2.7,1.081c-2.28-1.735-4.533-3.511-6.755-5.335C54.374,195.917,55.238,195.524,56.104,195.135z"/>
				<path style="fill:#EFFDFE;" d="M99.495,172.053c0.273,0.389,0.547,0.777,0.82,1.166c-2.452-0.309-4.922-0.592-7.411-0.847
					c-0.319-0.412-0.641-0.821-0.955-1.238C94.485,171.411,97,171.72,99.495,172.053z"/>
				<path style="fill:#EFFDFE;" d="M177.16,185.745c0.265,0.271,0.528,0.546,0.791,0.819c-1.769-0.261-3.554-0.562-5.37-0.86
					c-0.842-0.138-1.703-0.279-2.556-0.419c-0.188-0.287-0.373-0.576-0.562-0.863c0.747,0.131,1.503,0.263,2.242,0.392
					C173.551,185.137,175.366,185.463,177.16,185.745z"/>
				<path style="fill:#EFFDFE;" d="M187.406,186.52c0.33,0.303,0.659,0.607,0.987,0.912c-1.576-0.01-3.167-0.074-4.786-0.213
					c-0.243-0.267-0.487-0.532-0.732-0.798C184.168,186.508,185.744,186.559,187.406,186.52z"/>
				<path style="fill:#EFFDFE;" d="M197.459,184.232c0.571,0.167,1.143,0.327,1.717,0.482c-0.387,0.428-0.822,0.788-1.291,1.076
					c-1.2,0.683-2.516,1.037-3.847,1.275c-0.17,0.029-0.345,0.042-0.516,0.067c-0.384-0.361-0.77-0.719-1.154-1.08
					c1.591-0.281,3.114-0.695,4.395-1.334C197.006,184.572,197.237,184.408,197.459,184.232z"/>
				<path style="fill:#EFFDFE;" d="M196.721,174.721c0.024,0.027,0.049,0.054,0.073,0.082c0.837,0.958,1.605,2.014,2.276,3.199
					c0.466,0.848,0.869,1.883,1.043,2.972c-0.436-0.12-0.871-0.244-1.305-0.372c-0.153-0.992-0.565-1.943-1.029-2.796
					c-0.573-1.033-1.255-1.97-1.961-2.84C196.118,174.883,196.42,174.806,196.721,174.721z"/>
				<path style="fill:#EFFDFE;" d="M188.685,166.497c1.536,1.442,3.289,3.142,5.057,4.985c-0.263,0.068-0.525,0.141-0.789,0.206
					c-0.335-0.378-0.669-0.754-0.998-1.125c-0.408-0.418-0.812-0.832-1.212-1.242c-0.799-0.819-1.581-1.621-2.345-2.404
					c-0.047-0.045-0.091-0.086-0.138-0.131C188.402,166.69,188.542,166.59,188.685,166.497z"/>
				<path style="fill:#EFFDFE;" d="M179.374,158.306c1.479,1.212,3.034,2.529,4.67,3.986c0.348,0.31,0.962,0.849,1.758,1.562
					c-0.122,0.087-0.249,0.165-0.371,0.254c-0.526-0.492-1.055-0.988-1.566-1.457c-1.687-1.514-3.282-2.882-4.796-4.142
					C179.167,158.438,179.273,158.374,179.374,158.306z"/>
				<path style="fill:#EFFDFE;" d="M167.895,149.977c-0.815-0.567-1.51-1.033-2.032-1.394c-0.884-0.604-1.34-0.916-1.34-0.916
					s0.459,0.307,1.348,0.901c0.548,0.371,1.302,0.794,2.182,1.338C168,149.929,167.948,149.953,167.895,149.977z"/>
				<path style="fill:#EFFDFE;" d="M171.897,152.563c1.362,0.984,2.877,2.104,4.551,3.406c-0.084,0.067-0.169,0.133-0.251,0.202
					c-1.695-1.347-3.227-2.507-4.595-3.517C171.7,152.623,171.799,152.593,171.897,152.563z"/>
				<path style="fill:#EFFDFE;" d="M162.459,183.197c0.697,0.122,1.378,0.241,2.068,0.362c0.212,0.307,0.419,0.618,0.629,0.927
					c-0.614-0.101-1.219-0.2-1.839-0.302c-1.643-0.271-3.37-0.587-5.14-0.924c-0.181-0.303-0.363-0.607-0.544-0.91
					C159.257,182.634,160.87,182.917,162.459,183.197z"/>
				<path style="fill:#EFFDFE;" d="M152.979,181.532c0.159,0.27,0.318,0.54,0.478,0.81c-1.889-0.372-3.796-0.748-5.688-1.104
					c-0.154-0.233-0.306-0.468-0.459-0.702C149.221,180.871,151.106,181.203,152.979,181.532z"/>
				<path style="fill:#EFFDFE;" d="M142.489,179.684c0.145,0.232,0.296,0.459,0.442,0.69c-0.07-0.012-0.142-0.025-0.212-0.037
					c-1.95-0.349-3.935-0.704-5.922-1.06c-0.14-0.253-0.286-0.501-0.424-0.754C138.427,178.914,140.474,179.302,142.489,179.684z"/>
				<path style="fill:#EFFDFE;" d="M131.951,177.685c0.136,0.265,0.267,0.535,0.405,0.799c-1.788-0.32-3.569-0.639-5.384-0.963
					c-0.171-0.291-0.336-0.585-0.506-0.876C128.316,176.995,130.13,177.339,131.951,177.685z"/>
				<path style="fill:#EFFDFE;" d="M121.823,175.763c0.006,0.001,0.013,0.002,0.019,0.004c0.175,0.31,0.351,0.62,0.527,0.93
					c-0.225-0.04-0.446-0.08-0.671-0.12c-1.475-0.274-2.983-0.522-4.477-0.781c-0.22-0.34-0.437-0.682-0.656-1.023
					C118.331,175.094,120.087,175.422,121.823,175.763z"/>
				<path style="fill:#EFFDFE;" d="M111.765,173.935c0.221,0.349,0.438,0.701,0.66,1.05c-2.391-0.383-4.794-0.755-7.224-1.097
					c-0.267-0.374-0.534-0.749-0.8-1.125C106.878,173.131,109.33,173.525,111.765,173.935z"/>
				<path style="fill:#EFFDFE;" d="M87.133,170.651c0.297,0.425,0.597,0.846,0.9,1.265c-2.221-0.19-4.45-0.365-6.698-0.504
					c-0.405-0.444-0.811-0.888-1.215-1.335C82.474,170.237,84.808,170.435,87.133,170.651z"/>
				<path style="fill:#EFFDFE;" d="M74.947,169.774c0.401,0.454,0.802,0.91,1.204,1.362c-0.01-0.001-0.02-0.001-0.03-0.002
					c-2.84-0.084-5.705-0.133-8.578-0.133c-0.714-0.514-1.418-1.044-2.117-1.584C68.757,169.516,71.965,169.653,74.947,169.774z"/>
				<path style="fill:#EFFDFE;" d="M59.51,169.304c0.666,0.616,1.346,1.212,2.04,1.792c-1.857,0.065-3.716,0.158-5.576,0.303
					c-1.426-0.682-2.858-1.349-4.292-2.007C54.279,169.299,56.905,169.282,59.51,169.304z"/>
				<path style="fill:#EFFDFE;" d="M41.854,173.528c0,0-3.497-1.026-5.127-1.596c0.982-1.282,5.103-1.882,7.42-2.047
					c2.048,0.861,2.479,1.042,4.509,1.958C46.785,172.218,43.433,172.505,41.854,173.528z"/>
				<path style="fill:#EFFDFE;" d="M41.499,177.852c0.2,1.181,0.784,2.455,1.47,3.58c0.248,0.418,0.518,0.826,0.796,1.228
					c-1.351,0.036-2.702,0.071-4.053,0.101c-0.593-0.791-1.163-1.611-1.681-2.497c-0.507-0.837-0.951-1.757-1.299-2.759
					C38.321,177.608,39.911,177.723,41.499,177.852z"/>
				<path style="fill:#EFFDFE;" d="M47.754,187.425c1.271,1.338,2.585,2.634,3.947,3.881c-0.882,0.404-1.764,0.808-2.646,1.212
					c-1.793-1.595-3.55-3.244-5.238-4.994C45.13,187.489,46.442,187.46,47.754,187.425z"/>
				<path style="fill:#EFFDFE;" d="M153.27,255.827c1.015,0.548,2.037,1.111,3.05,1.654c2.201,1.169,4.376,2.324,6.561,3.483
					c-0.682,0.556-1.376,1.089-2.076,1.612c-2.149-1.168-4.288-2.332-6.453-3.509c-1.009-0.555-2.027-1.129-3.038-1.687
					C151.975,256.876,152.625,256.356,153.27,255.827z"/>
				<path style="fill:#EFFDFE;" d="M229.017,345.093c-0.956,4.815-2.431,10.459-4.076,15.375c-1.572-0.648-3.132-1.326-4.672-2.049
					c1.82-4.27,3.387-8.842,4.469-13.688C226.162,344.88,227.589,345.001,229.017,345.093z"/>
			</g>
			
				<linearGradient id="SVGID_00000129196466938477012260000015681849016729151630_" gradientUnits="userSpaceOnUse" x1="286.8451" y1="435.8247" x2="175.601" y2="332.3559">
				<stop  offset="0" style="stop-color:#000000"/>
				<stop  offset="0.1019" style="stop-color:#121212"/>
				<stop  offset="0.3058" style="stop-color:#404040"/>
				<stop  offset="0.593" style="stop-color:#8B8B8B"/>
				<stop  offset="0.9495" style="stop-color:#F0F0F0"/>
				<stop  offset="1" style="stop-color:#FFFFFF"/>
			</linearGradient>
			<path style="fill:url(#SVGID_00000129196466938477012260000015681849016729151630_);" d="M327.194,400
				c15.158-75.135-39.964-108.703-107.952-133.369L100.029,400H327.194z"/>
		</g>
		<g>
			<g>
				<g>
					<path style="fill:#272B2C;" d="M557.026,400c-66.917-26.637-150.254-77.559-105.633-110.657
						c43.317-32.13,143.12-91.67,141.321-115.625c-0.021-0.284-0.981-4.447-1.032-4.721c-12.929-7.901-40.985-11.512-150.616,10.606
						c-31.158,7.057-19.622-13.863-1.719-28.649c0-0.8,0-2.275,0-2.275c-64.565,31.732-75.409,62.508-9.075,47.202
						c75.988-17.533,125.693-18.753,91.117,7.396C412.562,285.585,250.963,268.527,271.552,400H557.026z"/>
					<g>
						<path style="fill:#899293;" d="M439.266,188.16c-20.831,4.807-57.875,1.248-57.875,1.248s1.166,4.067,1.365,4.61
							c2.373,6.482,17.158,9.936,45.011,3.509c69.616-16.063,114.948-16.83,95.848,2.992c1.529-1.104,5.26-3.822,6.769-4.963
							C564.959,169.406,515.253,170.626,439.266,188.16z"/>
					</g>
					
						<linearGradient id="SVGID_00000104670338270759827100000017312726692559173286_" gradientUnits="userSpaceOnUse" x1="430.8711" y1="15.0001" x2="430.8711" y2="401.6253">
						<stop  offset="0" style="stop-color:#697173"/>
						<stop  offset="1" style="stop-color:#363B3C"/>
					</linearGradient>
					<path style="fill:url(#SVGID_00000104670338270759827100000017312726692559173286_);" d="M576.001,400
						c-68.578-23.246-178.701-82.885-129.728-118.532c69.333-50.467,292.835-163.682-5.207-104.674
						c-31.158,6.925-19.622-13.604-1.719-28.113c0-0.785-5.247-0.262-8.898-0.262c-64.565,31.139-66.512,59.37-0.177,44.35
						c75.988-17.206,125.693-18.403,91.117,7.258C410.652,282.212,245.274,263.437,272.805,400H576.001z"/>
					<path style="fill:#EFFDFE;" d="M288.499,400C261.995,262.641,420.543,282.241,526.47,198.289
						c32.031-25.386-14.894-26.317-88.081-8.983c-62.447,14.79-80.404-2.726-6.847-41.17c-0.13,0.001-0.261,0.003-0.387,0.003
						c-69.084,34.923-61.15,57.978,2.739,42.958c73.186-17.206,124.607-18.195,88.081,8.929
						C414.109,280.126,255.848,263.144,282.543,400H288.499z"/>
					<path style="fill:#EFFDFE;" d="M438.343,178.095c295.532-58.665,70.301,52.53,1.764,102.704
						C394.341,314.301,485.139,373.981,555.523,400h14.067c-67.463-23.39-173.329-83.523-124.984-118.915
						c68.537-50.173,293-162.87-5.051-103.769c-30.394,6.027-19.015-13.742-0.679-28.708c-0.3,0.098-0.319-0.145-0.319-0.145
						C420.929,162.962,407.856,184.889,438.343,178.095z"/>
				</g>
				<path style="fill:#EFFDFE;" d="M406.42,400c-1.347-1.659-2.756-3.417-4.217-5.287c-2.001,1.095-4.037,2.06-6.101,2.936
					c0.595,0.806,1.18,1.583,1.761,2.351H406.42z"/>
				<path style="fill:#EFFDFE;" d="M387.55,373.654c-0.108-0.19-0.221-0.387-0.33-0.577c-1.789,0.858-3.593,1.671-5.41,2.444
					c0.061,0.108,0.117,0.223,0.179,0.329c0.757,1.351,1.503,2.682,2.238,3.994c0.761,1.288,1.549,2.524,2.303,3.758
					c0.958,1.538,1.912,3.01,2.864,4.453c2.028-0.737,4.028-1.555,5.979-2.509c-1.835-2.595-3.696-5.335-5.559-8.271
					C389.073,376.086,388.297,374.893,387.55,373.654z"/>
				<path style="fill:#EFFDFE;" d="M371.78,319c-0.098,0.333-0.213,0.66-0.303,0.995c-0.828,3.172-1.319,6.39-1.539,9.585
					c1.381-0.083,2.76-0.195,4.139-0.34c0.199-2.639,0.607-5.287,1.264-7.906c0.139-0.532,0.314-1.079,0.477-1.621
					C374.473,319.467,373.125,319.237,371.78,319z"/>
				<path style="fill:#EFFDFE;" d="M384.001,297.32c-0.343,0.391-0.692,0.776-1.027,1.174c-1.987,2.4-3.823,4.96-5.46,7.652
					c1.312,0.229,2.623,0.462,3.931,0.718c1.428-2.463,2.996-4.802,4.662-6.854c0.104-0.126,0.216-0.248,0.321-0.373
					C385.61,298.877,384.801,298.104,384.001,297.32z"/>
				<path style="fill:#EFFDFE;" d="M399.093,283.533c-2.303,1.745-4.564,3.545-6.73,5.449c0.768,0.725,1.545,1.438,2.329,2.141
					c2.31-2.09,4.726-4.086,7.188-5.982C400.943,284.629,400.014,284.092,399.093,283.533z"/>
				<path style="fill:#EFFDFE;" d="M413.353,273.94c-2.676,1.614-5.307,3.282-7.882,5.02c0.971,0.517,1.953,1.002,2.948,1.447
					c2.466-1.685,4.994-3.311,7.57-4.889C415.111,274.992,414.231,274.468,413.353,273.94z"/>
				<path style="fill:#EFFDFE;" d="M430.512,264.473c-2.968,1.576-5.931,3.149-8.861,4.704c-0.404,0.221-0.801,0.451-1.203,0.674
					c0.868,0.513,1.739,1.017,2.611,1.519c0.226-0.128,0.448-0.259,0.675-0.387c2.909-1.582,5.85-3.181,8.795-4.783
					C431.853,265.633,431.18,265.058,430.512,264.473z"/>
				<path style="fill:#EFFDFE;" d="M461.538,247.726c-2.688,1.491-5.373,2.972-8.051,4.436c0.674,0.487,1.363,0.953,2.056,1.41
					c2.664-1.491,5.34-3.018,8.013-4.536C462.885,248.597,462.207,248.17,461.538,247.726z"/>
				<path style="fill:#EFFDFE;" d="M476.313,239.37c-2.592,1.486-5.185,2.972-7.774,4.432c0.652,0.422,1.301,0.851,1.956,1.268
					c2.611-1.507,5.227-3.042,7.842-4.575C477.658,240.133,476.983,239.758,476.313,239.37z"/>
				<path style="fill:#EFFDFE;" d="M489.902,231.443c-2.093,1.24-4.188,2.474-6.284,3.697c0.707,0.337,1.421,0.654,2.139,0.958
					c1.99-1.188,3.979-2.388,5.967-3.592C491.115,232.156,490.509,231.799,489.902,231.443z"/>
				<path style="fill:#EFFDFE;" d="M504.357,222.679c-2.455,1.525-4.917,3.036-7.383,4.529c0.602,0.33,1.206,0.653,1.811,0.974
					c2.447-1.514,4.888-3.045,7.324-4.591C505.523,223.294,504.941,222.984,504.357,222.679z"/>
				<path style="fill:#EFFDFE;" d="M518.195,213.815c-2.227,1.471-4.462,2.931-6.707,4.369c0.576,0.281,1.154,0.558,1.731,0.835
					c2.245-1.46,4.72-2.996,7.274-4.574C519.727,214.238,518.96,214.03,518.195,213.815z"/>
				<path style="fill:#EFFDFE;" d="M532.08,205.085c-0.307-0.064-0.615-0.117-0.923-0.177c-2.14,1.532-4.295,3.043-6.466,4.532
					c0.904,0.238,1.808,0.474,2.713,0.71c2.372-1.496,4.683-3,6.849-4.488C533.538,205.437,532.815,205.238,532.08,205.085z"/>
				<path style="fill:#EFFDFE;" d="M543.896,195.135c-0.181,0.152-0.359,0.307-0.541,0.458c-2.068,1.706-4.185,3.352-6.32,4.974
					c0.9,0.351,1.8,0.718,2.7,1.081c2.28-1.735,4.533-3.511,6.755-5.335C545.626,195.917,544.761,195.524,543.896,195.135z"/>
				<path style="fill:#EFFDFE;" d="M500.505,172.053c-0.273,0.389-0.547,0.777-0.82,1.166c2.452-0.309,4.922-0.592,7.411-0.847
					c0.319-0.412,0.641-0.821,0.955-1.238C505.515,171.411,503,171.72,500.505,172.053z"/>
				<path style="fill:#EFFDFE;" d="M422.84,185.745c-0.266,0.271-0.528,0.546-0.791,0.819c1.769-0.261,3.554-0.562,5.37-0.86
					c0.842-0.138,1.703-0.279,2.556-0.419c0.188-0.287,0.373-0.576,0.562-0.863c-0.747,0.131-1.503,0.263-2.242,0.392
					C426.449,185.137,424.634,185.463,422.84,185.745z"/>
				<path style="fill:#EFFDFE;" d="M412.593,186.52c-0.33,0.303-0.659,0.607-0.987,0.912c1.576-0.01,3.167-0.074,4.786-0.213
					c0.243-0.267,0.487-0.532,0.732-0.798C415.832,186.508,414.256,186.559,412.593,186.52z"/>
				<path style="fill:#EFFDFE;" d="M402.541,184.232c-0.571,0.167-1.143,0.327-1.717,0.482c0.387,0.428,0.822,0.788,1.291,1.076
					c1.2,0.683,2.515,1.037,3.847,1.275c0.17,0.029,0.345,0.042,0.516,0.067c0.384-0.361,0.77-0.719,1.154-1.08
					c-1.591-0.281-3.114-0.695-4.395-1.334C402.994,184.572,402.763,184.408,402.541,184.232z"/>
				<path style="fill:#EFFDFE;" d="M403.279,174.721c-0.024,0.027-0.049,0.054-0.073,0.082c-0.837,0.958-1.605,2.014-2.276,3.199
					c-0.466,0.848-0.869,1.883-1.043,2.972c0.436-0.12,0.871-0.244,1.305-0.372c0.153-0.992,0.565-1.943,1.029-2.796
					c0.573-1.033,1.255-1.97,1.961-2.84C403.882,174.883,403.58,174.806,403.279,174.721z"/>
				<path style="fill:#EFFDFE;" d="M411.315,166.497c-1.536,1.442-3.289,3.142-5.057,4.985c0.263,0.068,0.526,0.141,0.789,0.206
					c0.335-0.378,0.669-0.754,0.998-1.125c0.408-0.418,0.812-0.832,1.212-1.242c0.799-0.819,1.581-1.621,2.345-2.404
					c0.047-0.045,0.091-0.086,0.138-0.131C411.597,166.69,411.458,166.59,411.315,166.497z"/>
				<path style="fill:#EFFDFE;" d="M420.626,158.306c-1.479,1.212-3.034,2.529-4.67,3.986c-0.348,0.31-0.962,0.849-1.758,1.562
					c0.122,0.087,0.249,0.165,0.371,0.254c0.526-0.492,1.055-0.988,1.566-1.457c1.687-1.514,3.282-2.882,4.796-4.142
					C420.833,158.438,420.727,158.374,420.626,158.306z"/>
				<path style="fill:#EFFDFE;" d="M432.105,149.977c0.815-0.567,1.51-1.033,2.033-1.394c0.884-0.604,1.34-0.916,1.34-0.916
					s-0.459,0.307-1.348,0.901c-0.548,0.371-1.302,0.794-2.182,1.338C432,149.929,432.052,149.953,432.105,149.977z"/>
				<path style="fill:#EFFDFE;" d="M428.102,152.563c-1.362,0.984-2.877,2.104-4.551,3.406c0.084,0.067,0.169,0.133,0.251,0.202
					c1.695-1.347,3.227-2.507,4.595-3.517C428.3,152.623,428.201,152.593,428.102,152.563z"/>
				<path style="fill:#EFFDFE;" d="M437.54,183.197c-0.697,0.122-1.378,0.241-2.068,0.362c-0.212,0.307-0.419,0.618-0.629,0.927
					c0.614-0.101,1.219-0.2,1.839-0.302c1.643-0.271,3.37-0.587,5.14-0.924c0.181-0.303,0.363-0.607,0.543-0.91
					C440.742,182.634,439.13,182.917,437.54,183.197z"/>
				<path style="fill:#EFFDFE;" d="M447.021,181.532c-0.159,0.27-0.318,0.54-0.478,0.81c1.889-0.372,3.796-0.748,5.688-1.104
					c0.154-0.233,0.306-0.468,0.459-0.702C450.779,180.871,448.893,181.203,447.021,181.532z"/>
				<path style="fill:#EFFDFE;" d="M457.511,179.684c-0.145,0.232-0.296,0.459-0.442,0.69c0.07-0.012,0.142-0.025,0.212-0.037
					c1.949-0.349,3.935-0.704,5.922-1.06c0.14-0.253,0.286-0.501,0.424-0.754C461.573,178.914,459.526,179.302,457.511,179.684z"/>
				<path style="fill:#EFFDFE;" d="M468.048,177.685c-0.136,0.265-0.267,0.535-0.405,0.799c1.788-0.32,3.569-0.639,5.384-0.963
					c0.171-0.291,0.336-0.585,0.506-0.876C471.684,176.995,469.87,177.339,468.048,177.685z"/>
				<path style="fill:#EFFDFE;" d="M478.177,175.763c-0.007,0.001-0.013,0.002-0.019,0.004c-0.175,0.31-0.351,0.62-0.527,0.93
					c0.225-0.04,0.446-0.08,0.671-0.12c1.475-0.274,2.983-0.522,4.477-0.781c0.219-0.34,0.437-0.682,0.656-1.023
					C481.669,175.094,479.913,175.422,478.177,175.763z"/>
				<path style="fill:#EFFDFE;" d="M488.235,173.935c-0.221,0.349-0.438,0.701-0.66,1.05c2.391-0.383,4.794-0.755,7.224-1.097
					c0.267-0.374,0.534-0.749,0.8-1.125C493.122,173.131,490.67,173.525,488.235,173.935z"/>
				<path style="fill:#EFFDFE;" d="M512.867,170.651c-0.296,0.425-0.597,0.846-0.9,1.265c2.221-0.19,4.45-0.365,6.698-0.504
					c0.405-0.444,0.811-0.888,1.214-1.335C517.526,170.237,515.192,170.435,512.867,170.651z"/>
				<path style="fill:#EFFDFE;" d="M525.052,169.774c-0.401,0.454-0.802,0.91-1.204,1.362c0.01-0.001,0.02-0.001,0.03-0.002
					c2.84-0.084,5.704-0.133,8.578-0.133c0.714-0.514,1.417-1.044,2.117-1.584C531.243,169.516,528.035,169.653,525.052,169.774z"/>
				<path style="fill:#EFFDFE;" d="M540.49,169.304c-0.666,0.616-1.346,1.212-2.04,1.792c1.857,0.065,3.716,0.158,5.576,0.303
					c1.426-0.682,2.858-1.349,4.292-2.007C545.721,169.299,543.095,169.282,540.49,169.304z"/>
				<path style="fill:#EFFDFE;" d="M558.146,173.528c0,0,3.497-1.026,5.127-1.596c-0.982-1.282-5.103-1.882-7.419-2.047
					c-2.048,0.861-2.479,1.042-4.509,1.958C553.214,172.218,556.567,172.505,558.146,173.528z"/>
				<path style="fill:#EFFDFE;" d="M558.5,177.852c-0.199,1.181-0.784,2.455-1.469,3.58c-0.248,0.418-0.518,0.826-0.796,1.228
					c1.351,0.036,2.702,0.071,4.053,0.101c0.593-0.791,1.163-1.611,1.681-2.497c0.507-0.837,0.951-1.757,1.299-2.759
					C561.679,177.608,560.089,177.723,558.5,177.852z"/>
				<path style="fill:#EFFDFE;" d="M552.246,187.425c-1.271,1.338-2.585,2.634-3.947,3.881c0.882,0.404,1.764,0.808,2.646,1.212
					c1.793-1.595,3.55-3.244,5.238-4.994C554.87,187.489,553.558,187.46,552.246,187.425z"/>
				<path style="fill:#EFFDFE;" d="M446.73,255.827c-1.015,0.548-2.037,1.111-3.05,1.654c-2.201,1.169-4.376,2.324-6.561,3.483
					c0.682,0.556,1.376,1.089,2.076,1.612c2.149-1.168,4.288-2.332,6.453-3.509c1.009-0.555,2.027-1.129,3.038-1.687
					C448.025,256.876,447.375,256.356,446.73,255.827z"/>
				<path style="fill:#EFFDFE;" d="M370.983,345.093c0.956,4.815,2.431,10.459,4.076,15.375c1.572-0.648,3.132-1.326,4.672-2.049
					c-1.82-4.27-3.387-8.842-4.469-13.688C373.838,344.88,372.411,345.001,370.983,345.093z"/>
			</g>
			
				<linearGradient id="SVGID_00000096025118539056865640000009842628076434775465_" gradientUnits="userSpaceOnUse" x1="429.1896" y1="435.8247" x2="317.9456" y2="332.3559" gradientTransform="matrix(-1 0 0 1 739.561 0)">
				<stop  offset="0" style="stop-color:#000000"/>
				<stop  offset="0.1019" style="stop-color:#121212"/>
				<stop  offset="0.3058" style="stop-color:#404040"/>
				<stop  offset="0.593" style="stop-color:#8B8B8B"/>
				<stop  offset="0.9495" style="stop-color:#F0F0F0"/>
				<stop  offset="1" style="stop-color:#FFFFFF"/>
			</linearGradient>
			<path style="fill:url(#SVGID_00000096025118539056865640000009842628076434775465_);" d="M270.023,400
				c-15.158-75.135,39.964-108.703,107.952-133.369L497.187,400H270.023z"/>
		</g>
		<g>
			
				<linearGradient id="SVGID_00000143602797956375402840000009192295917085166260_" gradientUnits="userSpaceOnUse" x1="299.9999" y1="137.6667" x2="299.9999" y2="407.1856">
				<stop  offset="0" style="stop-color:#697173"/>
				<stop  offset="1" style="stop-color:#363B3C"/>
			</linearGradient>
			<polygon style="fill:url(#SVGID_00000143602797956375402840000009192295917085166260_);" points="391.116,400 304.708,148.059 
				295.291,148.059 208.884,400 			"/>
			<g>
				<polygon style="fill:#EFFDFE;" points="223.323,400 296.038,148.059 295.729,148.059 217.348,400 				"/>
				<polygon style="fill:#EFFDFE;" points="382.651,400 304.271,148.059 303.962,148.059 376.677,400 				"/>
			</g>
			<path style="fill:#EFFDFE;" d="M302.615,356.753h-5.23l0.124-13.953h4.982L302.615,356.753z M302.22,312.406h-4.439l-0.098,11.02
				h4.636L302.22,312.406z M302.002,287.979h-4.003l-0.08,8.924h4.163L302.002,287.979z M301.823,267.92h-3.646l-0.066,7.374h3.777
				L301.823,267.92z M301.673,251.153h-3.346l-0.055,6.195h3.457L301.673,251.153z M301.546,236.929h-3.092l-0.047,5.277h3.187
				L301.546,236.929z M301.437,224.71h-2.875l-0.041,4.55h2.956L301.437,224.71z M301.343,214.101h-2.685l-0.035,3.963h2.756
				L301.343,214.101z M301.26,204.802h-2.519l-0.031,3.483h2.581L301.26,204.802z M301.186,196.586h-2.373l-0.027,3.085h2.428
				L301.186,196.586z M301.121,189.273h-2.242l-0.025,2.751h2.292L301.121,189.273z M301.063,182.723h-2.125l-0.022,2.469h2.169
				L301.063,182.723z M301.01,176.821h-2.02l-0.02,2.228h2.06L301.01,176.821z M300.962,171.477h-1.925l-0.018,2.021h1.961
				L300.962,171.477z M300.919,166.614h-1.838l-0.016,1.841h1.871L300.919,166.614z M300.879,162.171h-1.759l-0.015,1.685h1.789
				L300.879,162.171z M300.843,158.095h-1.686l-0.014,1.547h1.714L300.843,158.095z M300.809,154.343h-1.619l-0.013,1.426h1.645
				L300.809,154.343z M300.779,150.877h-1.557l-0.012,1.318h1.581L300.779,150.877z M300.75,147.667h-1.5l-0.011,1.222h1.522
				L300.75,147.667z M302.837,381.654h-5.675L297,399.887h6L302.837,381.654z"/>
		</g>
	</g>
</g>
<g>
	<path style="fill:#53595B;" d="M303.458,38.255c10.648,0,14.397,10.067,12.176,16.228c-4.868,13.509-26.99,28.613-26.99,43.128
		v22.016H313.2c0-5.282,0-18.072,0-18.072c0-15.111,30.524-30.506,30.524-52.774c0-21.299-14.341-33.985-36.918-33.985
		c-18.595,0-31.252,11.069-38.088,19.29l14.986,13.893C291.301,40.635,297.831,38.255,303.458,38.255z"/>
	<path style="fill:#53595B;" d="M301.27,128.354c-6.778,0-11.049,4.875-11.049,10.684c0,5.912,4.457,10.995,11.049,10.995
		c6.685,0,10.584-5.809,10.585-10.995C311.855,133.644,307.305,128.354,301.27,128.354z"/>
	
		<linearGradient id="SVGID_00000142892555610687376320000010773264650493020832_" gradientUnits="userSpaceOnUse" x1="305.8902" y1="114.25" x2="305.8902" y2="16.678">
		<stop  offset="0" style="stop-color:#FFFFFF"/>
		<stop  offset="1" style="stop-color:#EFFDFE"/>
	</linearGradient>
	<path style="fill:url(#SVGID_00000142892555610687376320000010773264650493020832_);" d="M324.773,78.956
		c-6.98,7.716-13.573,15.004-13.573,22.599v18.072h-2v-18.072c0-8.367,6.844-15.932,14.09-23.941
		c7.703-8.514,16.434-18.164,16.434-28.833c0-18.776-12.306-29.985-32.918-29.985c-14.605,0-25.268,7.507-32.05,14.537
		c-0.145,0.15-2.836,2.905-3.252,3.337l-1.447-1.341c1.301-1.364,3.034-3.156,3.525-3.658c7.272-7.455,18.269-14.874,33.224-14.874
		c21.864,0,34.918,11.957,34.918,31.985C341.724,60.221,332.719,70.174,324.773,78.956z M292.644,97.611
		c0-6.886,6.886-14.907,13.545-22.664c5.607-6.533,10.898-12.697,13.209-19.107c1.684-4.672,0.815-10.475-2.211-14.783
		c-3.082-4.386-7.957-6.802-13.728-6.802c-6.472,0-12.746,2.554-19.118,7.793c-0.192,0.158-2.956,2.948-3.401,3.369l1.407,1.305
		c1.294-1.257,2.964-2.885,3.413-3.251c5.949-4.849,11.77-7.216,17.699-7.216c5.101,0,9.395,2.114,12.092,5.952
		c2.664,3.792,3.436,8.876,1.966,12.955c-2.186,6.067-7.364,12.098-12.845,18.483c-6.897,8.034-14.027,16.341-14.027,23.967v22.016
		h2V97.611z"/>
	<g>
		
			<linearGradient id="SVGID_00000083778629947743615520000010706210789557429437_" gradientUnits="userSpaceOnUse" x1="290.6498" y1="119.7606" x2="290.6498" y2="28.6846">
			<stop  offset="0" style="stop-color:#FFFFFF"/>
			<stop  offset="1" style="stop-color:#EFFDFE"/>
		</linearGradient>
		<path style="fill:url(#SVGID_00000083778629947743615520000010706210789557429437_);" d="M294.529,26.767
			c-2.885,0.985-5.654,2.393-8.246,4.051c0.284,0.408,0.577,0.81,0.856,1.221c2.482-1.581,5.127-2.921,7.876-3.856
			C294.851,27.712,294.69,27.239,294.529,26.767z"/>
		
			<linearGradient id="SVGID_00000152264570933000402740000011861986813346808207_" gradientUnits="userSpaceOnUse" x1="305.8437" y1="119.7603" x2="305.8437" y2="28.6845">
			<stop  offset="0" style="stop-color:#FFFFFF"/>
			<stop  offset="1" style="stop-color:#EFFDFE"/>
		</linearGradient>
		<path style="fill:url(#SVGID_00000152264570933000402740000011861986813346808207_);" d="M310.184,26.732
			c0.128-0.489,0.266-0.975,0.4-1.463c-2.937-0.348-6.115-0.338-9.48,0.056c0.169,0.485,0.343,0.968,0.516,1.452
			C304.658,26.443,307.526,26.437,310.184,26.732z"/>
		
			<linearGradient id="SVGID_00000126298841575857495540000017725922687436637061_" gradientUnits="userSpaceOnUse" x1="320.8589" y1="119.7588" x2="320.8589" y2="28.684">
			<stop  offset="0" style="stop-color:#FFFFFF"/>
			<stop  offset="1" style="stop-color:#EFFDFE"/>
		</linearGradient>
		<path style="fill:url(#SVGID_00000126298841575857495540000017725922687436637061_);" d="M323.89,32.903
			c0.378-0.329,0.755-0.659,1.132-0.99c-0.459-0.488-0.934-0.962-1.449-1.405c-1.833-1.575-4.014-2.813-6.472-3.717
			c-0.137,0.482-0.276,0.963-0.406,1.447c2.243,0.839,4.231,1.973,5.9,3.408C323.055,32.042,323.478,32.468,323.89,32.903z"/>
		
			<linearGradient id="SVGID_00000121998226717421008030000002192012729315370908_" gradientUnits="userSpaceOnUse" x1="329.0451" y1="119.7597" x2="329.0451" y2="28.6848">
			<stop  offset="0" style="stop-color:#FFFFFF"/>
			<stop  offset="1" style="stop-color:#EFFDFE"/>
		</linearGradient>
		<path style="fill:url(#SVGID_00000121998226717421008030000002192012729315370908_);" d="M330.579,46.406
			c-0.158-3.283-0.791-6.219-1.881-8.801c-0.396,0.346-0.79,0.695-1.188,1.038c0.887,2.26,1.39,4.826,1.542,7.657
			C329.562,46.336,330.07,46.371,330.579,46.406z"/>
		
			<linearGradient id="SVGID_00000013160126637696577940000005816458303215455414_" gradientUnits="userSpaceOnUse" x1="327.7363" y1="119.7595" x2="327.7363" y2="28.6842">
			<stop  offset="0" style="stop-color:#FFFFFF"/>
			<stop  offset="1" style="stop-color:#EFFDFE"/>
		</linearGradient>
		<path style="fill:url(#SVGID_00000013160126637696577940000005816458303215455414_);" d="M326.805,61.3
			c1.434-2.714,2.56-5.461,3.198-8.224c-0.506-0.035-1.011-0.071-1.516-0.107c-0.617,2.554-1.677,5.109-3.018,7.645
			C325.917,60.836,326.362,61.066,326.805,61.3z"/>
		
			<linearGradient id="SVGID_00000090257545381351132900000012716774744911479975_" gradientUnits="userSpaceOnUse" x1="320.4829" y1="119.7596" x2="320.4829" y2="28.6844">
			<stop  offset="0" style="stop-color:#FFFFFF"/>
			<stop  offset="1" style="stop-color:#EFFDFE"/>
		</linearGradient>
		<path style="fill:url(#SVGID_00000090257545381351132900000012716774744911479975_);" d="M318.803,73.15
			c1.577-2.003,3.113-4.042,4.521-6.113c-0.447-0.233-0.897-0.462-1.349-0.684c-1.35,1.976-2.822,3.925-4.333,5.845
			C318.03,72.515,318.417,72.831,318.803,73.15z"/>
		
			<linearGradient id="SVGID_00000111889264903769761120000000026953682402912670_" gradientUnits="userSpaceOnUse" x1="311.2618" y1="119.7592" x2="311.2618" y2="28.6852">
			<stop  offset="0" style="stop-color:#FFFFFF"/>
			<stop  offset="1" style="stop-color:#EFFDFE"/>
		</linearGradient>
		<path style="fill:url(#SVGID_00000111889264903769761120000000026953682402912670_);" d="M309.084,85.018
			c1.322-1.655,2.763-3.384,4.255-5.173c0.412-0.494,0.831-1.002,1.246-1.502c-0.386-0.318-0.775-0.632-1.163-0.947
			c-0.412,0.496-0.828,0.999-1.236,1.49c-1.487,1.784-2.922,3.507-4.248,5.168C308.315,84.379,308.697,84.701,309.084,85.018z"/>
		
			<linearGradient id="SVGID_00000093174792367155808240000011511048022702276506_" gradientUnits="userSpaceOnUse" x1="303.0018" y1="119.7596" x2="303.0018" y2="28.684">
			<stop  offset="0" style="stop-color:#FFFFFF"/>
			<stop  offset="1" style="stop-color:#EFFDFE"/>
		</linearGradient>
		<path style="fill:url(#SVGID_00000093174792367155808240000011511048022702276506_);" d="M302.362,96.346
			c0.34-1.768,1.331-3.768,2.765-5.962c-0.391-0.316-0.765-0.648-1.149-0.971c-1.605,2.439-2.721,4.691-3.1,6.738
			C301.376,96.202,301.87,96.268,302.362,96.346z"/>
		
			<linearGradient id="SVGID_00000000184126273128783760000010438012344320471714_" gradientUnits="userSpaceOnUse" x1="301.4736" y1="119.7595" x2="301.4736" y2="28.6845">
			<stop  offset="0" style="stop-color:#FFFFFF"/>
			<stop  offset="1" style="stop-color:#EFFDFE"/>
		</linearGradient>
		<path style="fill:url(#SVGID_00000000184126273128783760000010438012344320471714_);" d="M302.224,109.293v-6.418
			c-0.497-0.073-0.997-0.125-1.5-0.161v6.609C301.224,109.313,301.724,109.303,302.224,109.293z"/>
		
			<linearGradient id="SVGID_00000133508114797878182550000003689180473718859404_" gradientUnits="userSpaceOnUse" x1="301.4736" y1="119.7595" x2="301.4736" y2="28.6835">
			<stop  offset="0" style="stop-color:#FFFFFF"/>
			<stop  offset="1" style="stop-color:#EFFDFE"/>
		</linearGradient>
		<path style="fill:url(#SVGID_00000133508114797878182550000003689180473718859404_);" d="M300.724,115.987v3.64h1.5v-3.669
			C301.724,115.968,301.224,115.976,300.724,115.987z"/>
		
			<linearGradient id="SVGID_00000101071369088828484180000013037746739711685030_" gradientUnits="userSpaceOnUse" x1="278.4939" y1="119.7587" x2="278.4939" y2="28.6843">
			<stop  offset="0" style="stop-color:#FFFFFF"/>
			<stop  offset="1" style="stop-color:#EFFDFE"/>
		</linearGradient>
		<path style="fill:url(#SVGID_00000101071369088828484180000013037746739711685030_);" d="M280.888,34.794
			c-2.075,1.734-3.976,3.557-5.646,5.341l1.096,1.016c1.603-1.715,3.423-3.466,5.407-5.133
			C281.466,35.606,281.172,35.203,280.888,34.794z"/>
	</g>
</g>
</svg>
